<svg width="2230" height="390" viewBox="0 0 2230 390" fill="none" xmlns="http://www.w3.org/2000/svg">
<path d="M2.11596e-06 36H65V331H248V386H2.11596e-06V36ZM268.316 119H330.816V386H268.316V119ZM299.816 75C288.483 75 278.983 71.5 271.316 64.5C263.65 57.1667 259.816 48.1667 259.816 37.5C259.816 26.8333 263.65 18 271.316 11C278.983 3.66665 288.483 -7.39098e-06 299.816 -7.39098e-06C311.15 -7.39098e-06 320.65 3.49999 328.316 10.5C335.983 17.1667 339.816 25.6667 339.816 36C339.816 47 335.983 56.3333 328.316 64C320.983 71.3333 311.483 75 299.816 75ZM539.348 116C573.014 116 600.014 125.833 620.348 145.5C640.681 165.167 650.848 194.333 650.848 233V386H588.348V241C588.348 217.667 582.848 200.167 571.848 188.5C560.848 176.5 545.181 170.5 524.848 170.5C501.848 170.5 483.681 177.5 470.348 191.5C457.014 205.167 450.348 225 450.348 251V386H387.848V119H447.348V153.5C457.681 141.167 470.681 131.833 486.348 125.5C502.014 119.167 519.681 116 539.348 116ZM814.133 271.5L767.633 315.5V386H705.133V15H767.633V239L897.133 119H972.133L860.633 231L982.633 386H906.633L814.133 271.5ZM1113.77 336.5C1142.77 336.5 1166.94 326.833 1186.27 307.5L1219.27 346C1207.61 360.333 1192.61 371.167 1174.27 378.5C1155.94 385.833 1135.27 389.5 1112.27 389.5C1082.94 389.5 1057.11 383.667 1034.77 372C1012.44 360.333 995.107 344.167 982.773 323.5C970.773 302.5 964.773 278.833 964.773 252.5C964.773 226.5 970.607 203.167 982.273 182.5C994.273 161.5 1010.61 145.167 1031.27 133.5C1052.27 121.833 1075.94 116 1102.27 116C1127.27 116 1149.94 121.5 1170.27 132.5C1190.94 143.167 1207.27 158.667 1219.27 179C1231.27 199 1237.27 222.5 1237.27 249.5L1032.77 289.5C1039.11 304.833 1049.27 316.5 1063.27 324.5C1077.27 332.5 1094.11 336.5 1113.77 336.5ZM1102.27 166C1079.27 166 1060.61 173.5 1046.27 188.5C1032.27 203.5 1025.27 223.667 1025.27 249V249.5L1176.27 220.5C1171.94 204.167 1163.11 191 1149.77 181C1136.77 171 1120.94 166 1102.27 166ZM1533.82 15V386H1473.82V351.5C1463.49 364.167 1450.65 373.667 1435.32 380C1420.32 386.333 1403.65 389.5 1385.32 389.5C1359.65 389.5 1336.49 383.833 1315.82 372.5C1295.49 361.167 1279.49 345.167 1267.82 324.5C1256.15 303.5 1250.32 279.5 1250.32 252.5C1250.32 225.5 1256.15 201.667 1267.82 181C1279.49 160.333 1295.49 144.333 1315.82 133C1336.49 121.667 1359.65 116 1385.32 116C1402.99 116 1419.15 119 1433.82 125C1448.49 131 1460.99 140 1471.32 152V15H1533.82ZM1392.82 336C1407.82 336 1421.32 332.667 1433.32 326C1445.32 319 1454.82 309.167 1461.82 296.5C1468.82 283.833 1472.32 269.167 1472.32 252.5C1472.32 235.833 1468.82 221.167 1461.82 208.5C1454.82 195.833 1445.32 186.167 1433.32 179.5C1421.32 172.5 1407.82 169 1392.82 169C1377.82 169 1364.32 172.5 1352.32 179.5C1340.32 186.167 1330.82 195.833 1323.82 208.5C1316.82 221.167 1313.32 235.833 1313.32 252.5C1313.32 269.167 1316.82 283.833 1323.82 296.5C1330.82 309.167 1340.32 319 1352.32 326C1364.32 332.667 1377.82 336 1392.82 336ZM1590.58 119H1653.08V386H1590.58V119ZM1622.08 75C1610.75 75 1601.25 71.5 1593.58 64.5C1585.92 57.1667 1582.08 48.1667 1582.08 37.5C1582.08 26.8333 1585.92 18 1593.58 11C1601.25 3.66665 1610.75 -7.39098e-06 1622.08 -7.39098e-06C1633.42 -7.39098e-06 1642.92 3.49999 1650.58 10.5C1658.25 17.1667 1662.08 25.6667 1662.08 36C1662.08 47 1658.25 56.3333 1650.58 64C1643.25 71.3333 1633.75 75 1622.08 75ZM1960.11 119L1845.61 386H1781.11L1666.61 119H1731.61L1814.61 317L1900.11 119H1960.11ZM2086.85 389.5C2059.85 389.5 2035.52 383.667 2013.85 372C1992.18 360.333 1975.18 344.167 1962.85 323.5C1950.85 302.5 1944.85 278.833 1944.85 252.5C1944.85 226.167 1950.85 202.667 1962.85 182C1975.18 161.333 1992.18 145.167 2013.85 133.5C2035.52 121.833 2059.85 116 2086.85 116C2114.18 116 2138.68 121.833 2160.35 133.5C2182.02 145.167 2198.85 161.333 2210.85 182C2223.18 202.667 2229.35 226.167 2229.35 252.5C2229.35 278.833 2223.18 302.5 2210.85 323.5C2198.85 344.167 2182.02 360.333 2160.35 372C2138.68 383.667 2114.18 389.5 2086.85 389.5ZM2086.85 336C2109.85 336 2128.85 328.333 2143.85 313C2158.85 297.667 2166.35 277.5 2166.35 252.5C2166.35 227.5 2158.85 207.333 2143.85 192C2128.85 176.667 2109.85 169 2086.85 169C2063.85 169 2044.85 176.667 2029.85 192C2015.18 207.333 2007.85 227.5 2007.85 252.5C2007.85 277.5 2015.18 297.667 2029.85 313C2044.85 328.333 2063.85 336 2086.85 336Z" fill="#F5F5F5"/>
</svg>
